<?xml version="1.0" encoding="utf-8"?>
<!-- Generator: Adobe Illustrator 18.1.0, SVG Export Plug-In . SVG Version: 6.00 Build 0)  -->
<!DOCTYPE svg PUBLIC "-//W3C//DTD SVG 1.1//EN" "http://www.w3.org/Graphics/SVG/1.1/DTD/svg11.dtd">
<svg version="1.1" id="Layer_1" xmlns="http://www.w3.org/2000/svg" xmlns:xlink="http://www.w3.org/1999/xlink" x="0px" y="0px"
	 width="600px" height="700px" enable-background="new 0 0 600 700" xml:space="preserve">
<g id="Head">
	<path fill="#B9BBBD" d="M333.5,62.7c-2.2-2.8-3.2-1.4-3.5-0.8c-0.1,0.1-0.1,0.2-0.1,0.2l0.3-11l0.1-3.2c0,0-3.8-24.7-29.2-25.2
		c-0.2,0-0.3,0-0.5,0h-0.1c-0.2,0-0.3,0-0.5,0c-25.3,0.5-29.2,25.2-29.2,25.2l0.1,3.2l0.3,11c0,0,0-0.1-0.1-0.2
		c-0.3-0.6-1.3-2-3.5,0.8c-0.7,0.9-0.8,2.6-0.5,4.7c0.8,5.5,4.1,13.2,4.1,13.2l3.5,2.1c0,0,2.5,10.9,5.8,16.7c1.2,2.1,3,4.2,4.8,6
		c0.1,0.1,0.2,0.2,0.3,0.3l0.2,0.2c0.6,0.5,1.3,0.9,2.2,1.6c2.6,2,6.7,4.7,12.4,4.8h0.1c0.1,0,0.2,0,0.3,0c5.8,0,9.5-2.6,12.1-4.6
		c0.7-0.6,1.1-0.9,1.9-1.5c0.1-0.1,0.4-0.4,0.5-0.5l0,0c1.9-1.9,3.8-4.1,5.1-6.3c3.3-5.8,5.8-16.7,5.8-16.7l3.5-2.1
		c0,0,3.3-7.7,4.1-13.2C334.3,65.3,334.3,63.6,333.5,62.7z"/>
	<path fill="#B9BBBD" d="M323.9,124.1h-0.5h-0.2c-5.9-1.1-8.7-9-9.8-14.3l-0.3-1.9c-2.6,2-6.3,4.6-12.1,4.6c-0.1,0-0.2,0-0.3,0h-0.1
		c-5.7-0.1-9.7-2.8-12.4-4.8l-0.3,2.4c-1.1,5.3-3.8,12.9-9.6,14h-0.9h-0.1c6.8,1.6,14.8,2.5,23.3,2.5
		C309.1,126.6,317,125.7,323.9,124.1z"/>
</g>
<g id="Torso">
	<path fill="#B9BBBD" d="M350.4,279.5c-5.1-12.7-11.1-22.6-12-29.1c-2.4-16.8,4.5-44.4,5.4-50.3c1-6.1,2.4-15.5,3.1-21.2
		c0,0,8.9-39.6-11.4-54.5c-0.5,0-1-0.1-1.3-0.1l0,0l-10.3-0.3c-6.8,1.6-14.8,2.5-23.2,2.5c-8.5,0-16.4-0.9-23.3-2.5l-10.8,0.3
		c0,0,0,0-0.1,0.1c-0.5,0-1.3,0.1-2.1,0.2c-20,15.1-11.2,54.3-11.2,54.3c0.7,6,2.8,15.6,3.7,21.2c0.9,5.9,7.8,33.5,5.4,50.3
		c-0.9,6.4-6.9,16.3-12,29c13.2,1.8,31,2.9,50.4,2.9C319.8,282.3,337.2,281.3,350.4,279.5z"/>
	<path fill="#A4A6A9" d="M300.2,266.1c0,0,3.9-82.8,0-93.5c0,0-0.8,5.2-0.8,9C299.3,185.5,300.2,266.1,300.2,266.1z"/>
</g>
<g id="Left_Hand">
	<path fill="#B9BBBD" d="M164.4,299.2c-0.5,0.6-1.1,1.1-1.9,1.5c-4.5,2.5-8.9,5.2-13.1,8.1l-12.9,8.8c-0.7,0.5-0.8,1.3-0.3,2
		l0.4,0.5c0.4,0.5,1,0.8,1.7,0.7c0.5-0.1,1.1-0.2,1.7-0.3c2.9-0.5,6.7-1.9,9.3-2.9c0.1,0-0.4,0.6-0.5,0.9l-5.9,9.4
		c-1.9,3.1-3.7,6.2-5.2,9.4l-1.3,2.6c-0.5,1,0.1,2.2,1.4,2.5c0.9,0.2,1.9-0.1,2.5-0.8l11.3-13.8l0.4,0.5l-2.4,4.7
		c-2.7,5.1-5,10.4-6.9,15.8c-0.4,1.2,0.7,2.6,2.4,2.3c0.8-0.1,1.5-0.6,1.8-1.2l10.6-17.6c0.2,0.1,0.3,0.1,0.5,0.2
		c0.1,0,0.1,0,0.2,0.1l-1,2.7c-2,5.5-3.5,11.1-4.6,16.8c-0.1,0.8,0.3,1.5,1.1,1.8l0.6,0.3c0.9,0.4,2,0,2.3-0.8l8.4-20
		c0.3,0.1,0.2,0.1,0.5,0.1l-1.9,14.7c-0.2,1.2,1,2.2,2.3,2c0.7-0.1,1.3-0.7,1.4-1.3l4.5-18.2l3.9-7.6c0,0,1.9-5.6,2.8-11.5
		c0.2-1.2,0-3-0.1-4.8c0,0,0,0,0-0.1c-2.2-0.3-4.5-1-6.8-2.1C168.8,303.2,166.3,301.3,164.4,299.2z"/>
</g>
<g id="Left_Arm">
	<path fill="#B9BBBD" d="M264.3,124.6c-7.6,1-26,5.9-33.9,29.7c-3.1,9.4-6.6,23-6.6,23s-13.9,32.7-17.5,41.2
		c-1.1,2.5-8.1,13-11.1,15.8c-4.6,4.4-18.2,35-22.4,46.6c-3.3,9.2-6.2,15.1-7.2,17.1c-0.4,0.4-0.8,0.8-0.9,1.1l-0.1,0.1
		c1.9,2.1,4.3,4,7.3,5.4c2.3,1.1,4.6,1.8,6.8,2.1c7.3-10.8,38-57,41.3-67.2c3.1-9.7,5.5-11.4,6.4-13.7s22.8-42,25.3-44.5
		c0.4-0.5,0.7-1.1,1.6-2.3C253.1,179,244.2,139.7,264.3,124.6z"/>
	<path fill="#A4A6A9" d="M208.3,235.2c0,0,3.2,4,9.5,3.5C217.8,238.7,213.6,243.8,208.3,235.2z"/>
</g>
<g id="Right_Arm">
	<path fill="#B9BBBD" d="M437,299.2C437,299.1,436.9,299.1,437,299.2c-0.1-0.1-0.1-0.1-0.2-0.2l0,0c-0.2-0.2-0.5-0.6-0.8-0.9
		c-0.9-1.7-3-6.1-5.6-12.8c-0.5-1.3-1.1-2.8-1.6-4.3c-4.2-11.6-17.9-42.2-22.4-46.6l-6.4-8.3l0,0c-2.2-3.2-4.1-6.3-4.7-7.5
		c-3.6-8.5-17.5-41.2-17.5-41.2s-3.4-13.6-6.6-23c-5.2-15.8-15.1-23.2-23.4-26.8l0,0c-0.4-0.2-0.9-0.4-1.3-0.5h-0.1
		c-0.4-0.2-0.8-0.3-1.2-0.4h-0.1c-0.4-0.1-0.8-0.3-1.2-0.4h-0.1c-0.4-0.1-0.8-0.2-1.1-0.3c0,0,0,0-0.1,0c-2.9-0.8-5.4-1.1-6.9-1.2
		c20.3,14.9,11.4,54.5,11.4,54.5c4.4,3.5,25.7,41.2,28.2,46.3c0.1,0.2,0.2,0.4,0.2,0.5c0.9,2.2,3.2,3.9,6.1,12.9l0,0
		c0.1,0.3,0.2,0.5,0.3,0.8c3.3,10.2,34,56.4,41.3,67.2c2.2-0.3,4.5-1,6.7-2.1C432.6,303.2,435.1,301.3,437,299.2z"/>
	<path fill="#A4A6A9" d="M393,235.2c0,0-3.2,4-9.5,3.5C383.6,238.7,387.8,243.8,393,235.2z"/>
</g>
<g id="Right_Hand">
	<path fill="#B9BBBD" d="M422.9,311.6c1,5.9,2.8,11.5,2.8,11.5l3.9,7.6l4.5,18.2c0.2,0.6,0.7,1.2,1.4,1.3c1.3,0.2,2.5-0.8,2.3-2
		l-1.9-14.7c0.3-0.1,0.2-0.1,0.5-0.1l8.4,20c0.3,0.8,1.4,1.2,2.3,0.8l0.6-0.3c0.8-0.3,1.3-1.1,1.1-1.8c-1.1-5.7-2.6-11.3-4.6-16.8
		l-1-2.7c0,0,0.1,0,0.2-0.1c0.2-0.1,0.3-0.1,0.5-0.2l10.6,17.6c0.4,0.6,1.1,1.1,1.8,1.2c1.7,0.2,2.8-1.2,2.4-2.3
		c-1.9-5.4-4.2-10.7-6.9-15.8l-2.4-4.7l0.4-0.5l11.3,13.8c0.6,0.7,1.5,1.1,2.5,0.8c1.3-0.3,1.9-1.5,1.4-2.5l-1.3-2.6
		c-1.6-3.2-3.3-6.4-5.2-9.4l-5.9-9.4c-0.1-0.2-0.7-0.9-0.6-0.9c2.7,1.1,6.4,2.5,9.3,2.9c0.6,0.1,1.2,0.2,1.7,0.3
		c0.6,0.1,1.3-0.2,1.7-0.7l0.4-0.5c0.5-0.7,0.4-1.5-0.3-2l-12.9-8.8c-4.2-2.9-8.6-5.6-13.1-8.1c-0.8-0.4-1.4-1-1.9-1.6
		c-1.9,2.1-4.3,4-7.3,5.5c-2.2,1.1-4.5,1.8-6.7,2.1c0,0,0,0.1,0.1,0.1C422.8,308.6,422.7,310.5,422.9,311.6z"/>
</g>
<g id="Shorts">
	<path fill="#B9BBBD" d="M357.9,314.4c0-13.2-3.4-24.9-7.4-34.9c-13.1,1.7-30.7,2.8-49.8,2.8c-19.4,0-37.2-1.1-50.4-2.9
		c-4,10-7.5,21.7-7.5,35c0,0-0.5,4.8-1.2,12.8c0.2,0.5,0.5,1,0.8,1.5c0.1,0.2,0.2,0.3,0.3,0.5c0.2,0.3,0.4,0.6,0.6,1
		c0.1,0.2,0.3,0.4,0.4,0.6c0.2,0.3,0.4,0.6,0.6,0.8s0.3,0.4,0.5,0.6c0.2,0.3,0.4,0.5,0.6,0.8c0.2,0.2,0.4,0.4,0.5,0.6
		c0.2,0.2,0.4,0.5,0.6,0.7c0.2,0.2,0.4,0.4,0.6,0.7c0.2,0.2,0.4,0.4,0.6,0.6c0.6,0.6,1.2,1.1,1.8,1.7c0.1,0.1,0.1,0.1,0.2,0.2
		c0.3,0.3,0.7,0.6,1,0.8c0.2,0.1,0.3,0.2,0.5,0.4c0.3,0.3,0.7,0.5,1.1,0.8c0.2,0.1,0.3,0.2,0.5,0.3c0.4,0.3,0.8,0.5,1.1,0.8
		c0.1,0.1,0.3,0.2,0.4,0.3c0.4,0.3,0.8,0.5,1.3,0.8c0.1,0.1,0.2,0.1,0.3,0.2c2.1,1.3,4.4,2.4,6.8,3.4l0,0
		c-6.9-3.4-10.4-8.3-11.5-12.2c0.2,0,6.5,7.7,12.8,10.1c12.4,4.8,34.1,5.9,34.8-8.2c0.2-3.9,0.5-15.5,1.2-26.3V307
		c0,0.3,0.1,0.6,0.1,1c0-0.3,0.1-0.6,0.1-1v2.2c0.7,10.6,1,21.9,1.2,25.9c0.8,14.1,23.3,12.9,35.8,8.2c6.3-2.4,12.6-10.1,12.6-10.1
		c-0.5,2.5-3.4,6.6-9,10.1c-3.6,2.2-8.2,4.1-14,5.2c2-0.2,4.1-0.6,6.2-1.3c12.5-3.8,22.1-11.4,26.2-19.8c0-0.1,0.1-0.1,0.1-0.2
		C358.4,319.1,357.9,314.4,357.9,314.4z"/>
	<path fill="#A4A6A9" d="M337.1,343.4c-12.4,4.7-35,5.9-35.8-8.2c-0.2-3.9-0.5-15.2-1.2-25.9v-2.2c0,0.4-0.1,0.7-0.1,1
		c0-0.4-0.1-0.7-0.1-1v1.8c-0.7,10.7-1,22.3-1.2,26.3c-0.7,14.1-22.3,13-34.8,8.2c-6.3-2.4-12.6-10.1-12.8-10.1
		c1.1,3.9,4.7,8.8,11.5,12.2l0,0c6.2,3.1,15.2,5.1,27.7,3.9c1.3-0.1,2.8-0.9,4.3-1.9c0.8-0.5,1.5-1.1,2.2-1.7
		c1.8-1.5,3.1-2.8,3.1-2.8s1.3,1.4,3.1,2.8c0.9,0.7,1.9,1.4,2.9,2c1.5,0.9,3.1,1.5,4.6,1.6c6.1,0.4,11.5,0,16.1-0.8
		c5.8-1.1,10.4-3,14-5.2c5.6-3.4,8.6-7.5,9-10.1C349.7,333.3,343.4,341,337.1,343.4z"/>
</g>
<g id="Upper_Left_Leg">
	<path fill="#B9BBBD" d="M290.3,349.4c-12.4,1.1-21.3-0.8-27.7-3.9l0,0c-2.4-1-4.7-2.2-6.8-3.4c-0.1-0.1-0.2-0.1-0.3-0.2
		c-0.4-0.3-0.9-0.5-1.3-0.8c-0.1-0.1-0.3-0.2-0.4-0.3c-0.4-0.3-0.8-0.5-1.1-0.8c-0.2-0.1-0.3-0.2-0.5-0.3c-0.4-0.3-0.7-0.5-1.1-0.8
		c-0.2-0.1-0.3-0.2-0.5-0.4c-0.3-0.3-0.7-0.6-1-0.8c-0.1-0.1-0.1-0.1-0.2-0.2c-0.6-0.5-1.2-1.1-1.8-1.7c-0.2-0.2-0.4-0.4-0.6-0.6
		c-0.2-0.2-0.4-0.4-0.6-0.7c-0.2-0.2-0.4-0.5-0.6-0.7s-0.4-0.4-0.5-0.6c-0.2-0.3-0.4-0.5-0.6-0.8c-0.2-0.2-0.3-0.4-0.5-0.6
		c-0.2-0.3-0.4-0.6-0.6-0.8c-0.1-0.2-0.3-0.4-0.4-0.6c-0.2-0.3-0.4-0.6-0.6-1c-0.1-0.2-0.2-0.3-0.3-0.5c-0.3-0.5-0.5-1-0.8-1.5
		c-2.4,26.8-7.3,89.7-4.7,132.7c3.2,2.4,7.1,4.6,11.4,6.4c0.7-0.1,1.5-0.1,2.3,0.1c1.6,0.3,2.7,1.1,3.5,2c0.9,0.3,1.8,0.5,2.8,0.8
		c3.3,0.9,6.6,1.4,9.7,1.8c0.7-3,2.4-10.5,3.1-16c0.9-7,8.6-30.8,11.2-44.2c2.3-11.4,11.7-41.4,13.5-60.5l0.2-2.8
		C293.1,348.5,291.6,349.3,290.3,349.4z"/>
	<path fill="#A4A6A9" d="M250.6,466.4c-0.8-0.2-1.6-0.2-2.3-0.1c1.9,0.8,3.8,1.5,5.8,2.1C253.3,467.5,252.2,466.7,250.6,466.4z"/>
</g>
<g id="Upper_Right_Leg">
	<path fill="#B9BBBD" d="M359.1,327.5c-4,8.4-13.6,16.1-26.2,19.8c-2.1,0.6-4.1,1-6.2,1.3c-4.6,0.9-10,1.3-16.1,0.8
		c-1.5-0.1-3.1-0.7-4.6-1.6l0,0l0.2,3.2c2,19.2,11.2,48.5,13.4,59.8c2.7,13.4,10.4,37.2,11.2,44.2c0.7,5.4,2.3,12.8,3.1,15.9
		c2.9-0.3,5.9-0.9,8.9-1.7c0.9-0.2,1.7-0.5,2.6-0.7c0.8-0.9,2-1.8,3.6-2.1c0.9-0.2,1.7-0.2,2.4-0.1c4.8-2,9-4.4,12.4-7.1
		C366.4,416.3,361.5,354.2,359.1,327.5z"/>
	<path fill="#A4A6A9" d="M349,466.4c-1.6,0.3-2.8,1.1-3.6,2.1c2.1-0.6,4.1-1.3,6-2.1C350.7,466.2,349.9,466.2,349,466.4z"/>
</g>
<g id="Lower_Left_Leg">
	<path fill="#B9BBBD" d="M256.8,469.2c-0.9-0.2-1.8-0.5-2.6-0.8c1.4,1.6,1.9,3.5,1.9,3.5s-4.8-5-12.8-3c0,0,2-2.2,5-2.6
		c-4.4-1.8-8.2-4-11.5-6.4c0,0.1,0,0.3,0,0.4c-0.5,1.2-0.3,2.2-0.8,3c-0.5,1-5.7,21.8-6.6,30.7c-0.9,8.9,2.4,106.9,2.4,106.9
		s-0.1,0.2-0.2,0.6c3.2,3.1,7.5,5.7,12.7,7.3c0.3-5.8,7.4-40.2,9-45.7c1.8-5.8,11-42.3,11.3-56.7c0.3-14.4,1.1-29.9,1.7-34.1
		c0,0,0.1-0.5,0.3-1.3C263.4,470.7,260.1,470.1,256.8,469.2z"/>
	<path fill="#A4A6A9" d="M243.2,468.9c8-2,12.8,3,12.8,3s-0.5-1.9-1.9-3.5c-2.1-0.6-4-1.3-5.9-2.1
		C245.2,466.7,243.2,468.9,243.2,468.9z"/>
</g>
<g id="Lower_Right_Leg">
	<path fill="#B9BBBD" d="M371.2,494c-0.9-8.9-6.1-29.7-6.6-30.7c-0.4-0.8-0.3-1.8-0.8-3c0-0.4,0-0.7,0.1-1.1
		c-3.3,2.7-7.6,5.1-12.4,7.1c2.9,0.4,4.9,2.6,4.9,2.6c-8-2-12.8,3-12.8,3s0.5-1.8,1.9-3.4c-0.8,0.2-1.6,0.5-2.5,0.7
		c-3,0.8-6,1.4-8.9,1.7c0.2,0.9,0.3,1.4,0.3,1.4c0.6,4.3,1.4,19.7,1.7,34.1c0.3,14.4,9.5,50.9,11.3,56.7c1.7,5.4,8.6,38.7,9,45.3
		c5.1-1.7,9.4-4.4,12.4-7.7C369,595.9,372.1,502.6,371.2,494z"/>
	<path fill="#A4A6A9" d="M356.4,468.9c0,0-2-2.1-4.9-2.6c-1.9,0.8-4,1.5-6.1,2.2c-1.4,1.6-1.9,3.4-1.9,3.4S348.3,466.9,356.4,468.9z
		"/>
</g>
<g id="Left_Foot">
	<path fill="#B9BBBD" d="M225.5,622.5c-1.2,2.7-10.7,36.6-12.7,39.6c-3.2,4.6,9.6,15.9,13.4,15.3c5.1,2.4,7.1,1.2,8.3,0.9
		s8.3-8.2,7.7-11.5c-0.6-3.4,1.3-20.1,1.3-20.1s-0.3-6,0.7-12.1c0.6-3.8,3.1-5.5,3.7-8.5c0.7-3.9-2.7-13-3.7-16.7c0-0.1,0-0.4,0-0.7
		c-5.1-1.5-9.5-4.1-12.7-7.3c-0.7,1.9-2.8,7.9-2.8,9.7C228.8,613.3,226.6,619.7,225.5,622.5z"/>
	<path fill="#A4A6A9" d="M240.4,671.7c0,0-20.7-0.2-26.6-11.9c0,0-1,1.3-1,2.2c-0.1,2.4,1.8,4.7,5.1,8.4c2.1,2.4,5.2,4.4,9.1,5.3
		c1.9,0.4,2.4,1.2,3.4,1.2c5.7,0.4,7.4-1.9,8.8-3.7L240.4,671.7z"/>
	<path fill="#A4A6A9" d="M214.5,669c0,0-0.1-0.1,0.1-1.3c0.2-0.9-0.1-2.2-0.1-2.2s-0.3,2.5-0.3,2.7s0,0.4,0,0.4L214.5,669z"/>
	<path fill="#A4A6A9" d="M217.9,672.7c0,0-0.1-0.5,0.2-1.6c0.2-0.9-0.1-2.2-0.1-2.2s-0.3,2.5-0.3,2.7s0.1,0.9,0.1,0.9L217.9,672.7z"
		/>
	<path fill="#A4A6A9" d="M221.9,675.9c0,0-0.2-0.6,0.1-1.7c0.3-0.9-0.1-2.2-0.1-2.2s-0.3,2.5-0.3,2.7s0.1,1.1,0.1,1.1L221.9,675.9z"
		/>
	<path fill="#A4A6A9" d="M226.1,677.5c0,0-0.1-1,0.3-1.9c0.3-0.7,0.1-1.9,0.1-1.9s-0.5,2.1-0.6,2.2c0,0.1-0.1,1.4-0.1,1.4
		L226.1,677.5z"/>
	<path fill="#A4A6A9" d="M221.5,635.9c0,0,1.9-8.4,5.6-10.2c1.9-0.5,5.3-1.4,8.1-1.4c8.4,0,11.8,1.5,9.8,8.5
		c-0.5,1.6-3.6,3.5-7.4,4.2l0.1,0.1c0,0-21,14-4.9,19.4c3.5,1.2,11.1,3.2,8.8,13c0,0-19.6,1.4-26.8-12.9
		C215,656.6,218.4,645.2,221.5,635.9z"/>
</g>
<g id="Right_Foot">
	<path fill="#B9BBBD" d="M356.3,609.4c-1,3.6-4.4,12.8-3.7,16.7c0.6,3,3.1,4.8,3.7,8.5c1,6.1,0.7,12.1,0.7,12.1s1.9,16.7,1.3,20.1
		c-0.6,3.4,6.5,11.2,7.7,11.5s3.3,1.5,8.3-0.9c3.8,0.6,16.6-10.7,13.4-15.3c-2.1-3-11.6-36.9-12.7-39.6c-1.2-2.7-3.4-9.2-3.4-11.3
		s-3-10.3-3-10.3s0-0.1,0-0.2c-3,3.3-7.4,6.1-12.5,7.7C356.4,608.9,356.4,609.3,356.3,609.4z"/>
	<path fill="#A4A6A9" d="M360.1,671.7c0,0,20.7-0.2,26.6-11.9c0,0,1,1.3,1,2.2c0.1,2.4-1.8,4.7-5.1,8.4c-2.1,2.4-5.2,4.4-9.1,5.3
		c-1.9,0.4-2.4,1.2-3.4,1.2c-5.7,0.4-7.4-1.9-8.8-3.7L360.1,671.7z"/>
	<path fill="#A4A6A9" d="M374.2,677.4c0,0,0.1-1-0.3-1.9c-0.3-0.7-0.1-1.9-0.1-1.9s0.5,2.1,0.5,2.2c0,0.1,0.1,1.4,0.1,1.4
		L374.2,677.4z"/>
	<path fill="#A4A6A9" d="M378.5,675.9c0,0,0.2-0.6-0.1-1.7c-0.3-0.9,0.2-2.2,0.2-2.2s0.3,2.5,0.3,2.7s-0.1,1.1-0.1,1.1L378.5,675.9z
		"/>
	<path fill="#A4A6A9" d="M382.5,672.9c0,0,0.1-0.5-0.1-1.6c-0.2-0.9,0.2-2.2,0.2-2.2s0.3,2.5,0.3,2.7s-0.1,0.9-0.1,0.9L382.5,672.9z
		"/>
	<path fill="#A4A6A9" d="M386,669.2c0,0,0.1-0.1-0.1-1.3c-0.2-0.9,0.2-2.2,0.2-2.2s0.3,2.5,0.3,2.7s-0.1,0.4-0.1,0.4L386,669.2z"/>
	<path fill="#A4A6A9" d="M379,636.2c0,0-1.9-8.4-5.6-10.2c-1.9-0.5-5.3-1.4-8.1-1.4c-8.4,0-11.8,1.5-9.8,8.5
		c0.5,1.6,3.6,3.5,7.4,4.2l-0.1,0.1c0,0,21,14,4.9,19.4c-3.5,1.2-11.1,3.2-8.8,13c0,0,19.6,1.4,26.8-12.9
		C385.6,656.8,382.1,645.4,379,636.2z"/>
</g>
</svg>
