<?xml version="1.0" encoding="utf-8"?>
<!-- Generator: Adobe Illustrator 18.1.0, SVG Export Plug-In . SVG Version: 6.00 Build 0)  -->
<!DOCTYPE svg PUBLIC "-//W3C//DTD SVG 1.1//EN" "http://www.w3.org/Graphics/SVG/1.1/DTD/svg11.dtd">
<svg version="1.1" id="Layer_1" xmlns="http://www.w3.org/2000/svg" xmlns:xlink="http://www.w3.org/1999/xlink" x="0px" y="0px"
	 width="600px" height="700px" enable-background="new 0 0 600 700" xml:space="preserve">
<g id="malefront">
	<g id="Shorts">
		<path fill="#B9BBBD" d="M313.5,378.3c9.7-0.3,26.3-2.4,45.5-11.9c-0.1-1-0.3-1.8-0.4-2.4c-2.3-10.5-6.2-28.5-6.3-32.5
			c-0.1-7.8-1.2-16.5-2.5-24.3c-47.2,8.1-85.8,2.9-100,0.3c-1.3,7.7-2.4,16.2-2.5,24c-0.1,4-4,22-6.3,32.5c-0.2,1-0.4,2.3-0.6,4.1
			c13.2,5.2,30.7,10.8,45.7,10.7c-0.8-3.3-1.9-6.6-3.5-9.9l11.8,9.2c0.3,0,0.6-0.1,0.8-0.2c1.4,0.7,3,1.2,4.6,1.2s3-0.4,4.4-1.1
			c0,0,0.2,0,0.5,0.1l12-9.4C315.4,371.9,314.3,375.1,313.5,378.3z"/>
		<path fill="#A4A6A9" d="M313.5,378.3c0.8-3.2,1.9-6.4,3.4-9.6l-12,9.4C306,378.2,309,378.5,313.5,378.3z"/>
		<path fill="#A4A6A9" d="M286.3,378.8c2.9,0,5.7-0.2,8.3-0.7l-11.8-9.2C284.4,372.2,285.5,375.5,286.3,378.8z"/>
	</g>
	<g id="Right_Hand">
		<path fill="#B9BBBD" d="M133.7,287.4c0,0.1-0.1,0.2-0.1,0.3c-0.5,0.3-1.1,0.5-1.7,0.6c-6,1.4-11.8,3.2-17.6,5.2l-17.6,6.1
			c-0.9,0.3-1.4,1.3-1.2,2.2l0.2,0.7c0.2,0.7,0.8,1.2,1.5,1.3c0.6,0,1.3,0.1,2,0.2c3.4,0.4,6.7,0.3,10.1-0.2c0,0,0,0,0.1,0
			c0.8,0,7.9,0.2,13.2-1.4c5.6-1.7,8.2-4.7,8.3-4c0,0.7-0.5,3.8-9.5,6.2c-6.4,1.7-11.4,1.8-13.7,1.7l-8.2,7.3
			c-3.3,2.9-6.5,6.1-9.5,9.3l-2.4,2.7c-0.9,1-0.7,2.6,0.5,3.4c0.9,0.6,2.1,0.4,3-0.2l18-12.4l0.3,0.7l-4.6,4.6
			c-5,5.1-9.7,10.5-13.9,16.3c-0.9,1.2-0.3,3.2,1.6,3.5c0.9,0.1,1.8-0.2,2.5-0.8l18.7-17.2c0.1,0.1,0.3,0.2,0.4,0.4l0.1,0.1
			l-2.2,2.9c-4.4,5.8-8.3,11.8-11.8,18.1c-0.5,0.8-0.3,1.9,0.5,2.5l0.6,0.5c0.9,0.7,2.1,0.6,2.9-0.2l17.3-20.6
			c0.3,0.2,0.2,0.1,0.5,0.4l-8.1,16.5c-0.6,1.3,0.2,2.9,1.7,3.1c0.8,0.1,1.6-0.4,2.1-1.1l12.3-19.8c0,0,5.5-5.7,7.3-7.6
			c7.6-7.9,9.8-19.9,11.2-23C139.2,293.1,135.2,289.3,133.7,287.4z"/>
		<path fill="#A4A6A9" d="M110.2,303.8h-0.9c0.8,0,7.9,0.2,13.2-1.4c5.6-1.7,8.2-4.7,8.3-4c0,0.7-0.5,3.8-9.5,6.2
			c-6.4,1.7-11.4,1.8-13.7,1.7"/>
	</g>
	<g id="Left_Hand">
		<path fill="#B9BBBD" d="M470,326.2l12.3,19.8c0.4,0.7,1.2,1.2,2.1,1.1c1.5-0.2,2.3-1.8,1.7-3.1l-8.1-16.5c0.3-0.2,0.2-0.1,0.5-0.4
			l17.3,20.6c0.7,0.9,2,1,2.9,0.2l0.6-0.5c0.7-0.6,0.9-1.7,0.5-2.5c-3.5-6.3-7.5-12.4-11.8-18.1l-2.2-2.9l0.1-0.1
			c0.2-0.1,0.3-0.3,0.4-0.4l18.7,17.2c0.7,0.6,1.6,0.9,2.5,0.8c2-0.3,2.6-2.3,1.6-3.5c-4.3-5.7-8.9-11.2-13.9-16.3l-4.6-4.6l0.3-0.7
			l18,12.4c0.9,0.6,2.1,0.7,3,0.2c1.3-0.8,1.4-2.4,0.5-3.4l-2.4-2.7c-3-3.3-6.2-6.4-9.5-9.3l-8.2-7.3c-2.4,0.1-7.3,0-13.7-1.7
			c-9-2.4-9.6-5.5-9.5-6.2c0-0.7,2.7,2.3,8.3,4c5.3,1.6,12.4,1.5,13.2,1.4h0.1c3.3,0.5,6.7,0.5,10.1,0.2c0.7-0.1,1.4-0.2,2-0.2
			c0.7-0.1,1.3-0.6,1.5-1.3l0.2-0.7c0.3-0.9-0.2-1.9-1.2-2.2l-17.6-6.1c-5.8-2-11.6-3.7-17.6-5.2c-0.6-0.1-1.1-0.3-1.7-0.6
			c-0.1-0.2-0.2-0.4-0.3-0.6c-1.3,1.8-5.2,5.8-14.4,8.5c1.3,2.9,3.5,15.1,11.2,23.1C464.6,320.6,470,326.2,470,326.2z"/>
		<path fill="#A4A6A9" d="M490.5,303.8L490.5,303.8c-0.8,0-8,0.2-13.3-1.4c-5.6-1.7-8.2-4.7-8.3-4c0,0.7,0.5,3.8,9.5,6.2
			c6.4,1.7,11.4,1.8,13.7,1.7"/>
	</g>
	<g id="Right_Arm">
		<path fill="#B9BBBD" d="M262.2,133.2L262.2,133.2h-0.7c-0.2,0-0.3,0-0.5,0l-2.1,0.1c-0.7,0.1-1.3,0.2-1.9,0.4
			c-24.6,3.7-26.6,23.4-35.4,37.3l-26.4,52.4c0,0-14.2,13.4-18.5,18.3c-0.4,0.5-42.8,45.2-42.8,45.2c-0.1,0.2-0.2,0.3-0.3,0.5
			c1.5,1.9,5.5,5.8,14.5,8.3c0.1-0.1,0.1-0.2,0.2-0.3l2.8-3.7c9.6-6.6,31.6-18.2,39.5-25.1c4.5-3.9,22.5-17.4,25.9-28.7l31.9-43.1
			v-0.2C248.5,194.6,266.2,179.9,262.2,133.2z"/>
		<polygon fill="#A4A6A9" points="245.2,186.7 248.5,194.6 224.4,226.1 		"/>
	</g>
	<g id="Left_Arm">
		<path fill="#B9BBBD" d="M466,287.1c0-0.1-0.1-0.1-0.1-0.2c0,0-42.4-44.7-42.8-45.2c-4.3-4.9-18.5-18.3-18.5-18.3L378.2,171
			c-8.5-13.5-10.4-34.4-33.1-37.3c0,0.1,0,0,0,0c-0.6-0.1-1.2-0.3-1.8-0.4l-5.7-0.2l-0.2,0.1c-3.8,44.8,12.3,60.2,13.6,61.3l0,0
			l0.1,0.1l0,0l0,0l32,43.3c3.4,11.3,21.4,24.8,25.9,28.7c7.9,6.9,29.9,18.5,39.5,25.1l2.8,3.7c0,0.1,0.1,0.1,0.1,0.2
			C460.8,292.9,464.6,288.8,466,287.1z"/>
		<polygon fill="#A4A6A9" points="354.5,186.7 351.3,194.6 375.4,226.1 		"/>
	</g>
	<g id="torso">
		<path fill="#B9BBBD" d="M348.5,200.8c0.8-2,1.8-4.1,2.6-6.2c-1.3-1.1-17.5-16.5-13.6-61.3l0.2-0.1l-4-0.1c-1.2,0-2.4-0.1-3.4-0.3
			c-20.6,7.4-43.4,3.6-57.1,0c-1.3,0.3-2.8,0.4-4.5,0.4l-6.5,0.2l0.1,0.1c4,46.7-13.7,61.4-13.7,61.4v0.2l0.2-0.3
			c0.8,2.2,2.4,4.1,2.6,6.3l0,0l0,0c1.3,3.3,5.7,22.9,5.8,23.1c0.7,3.6,0.3,29.5,0.2,31.6c-0.2,6.1-2.4,18.7-3.5,24.8
			c-0.7,3.7-1.4,14.9-1.4,14.9c-0.8,3.7-1.7,8-2.4,12.5c14.1,2.6,52.7,7.8,100-0.3c-0.3-1.7-0.6-3.3-0.9-4.8c0,0-1.7-13.8-2.7-18.3
			c-1.3-6-3.8-17.9-4-24c-0.1-2.1-0.2-29.3,0.2-31.6C343.5,222.5,343.2,213.4,348.5,200.8z"/>
		<path fill="#A4A6A9" d="M253.6,206.7c0,0,13,6.5,32.5,3.7S260.1,222.4,253.6,206.7z"/>
		<path fill="#A4A6A9" d="M346.2,206.7c0,0-13,6.5-32.5,3.7C294.3,207.6,339.7,222.4,346.2,206.7z"/>
		<path fill="#A4A6A9" d="M300.8,299.1c-1.6,0-2.9,1.3-2.9,2.9v0.1c0.3-0.7,1-1.1,1.8-1.1c1.1,0,2.1,0.9,2.1,2.1
			c0,0.8-0.5,1.5-1.1,1.8h0.1c1.6,0,2.9-1.3,2.9-2.9S302.4,299.1,300.8,299.1z"/>
	</g>
	<g id="Head">
		<path fill="#B9BBBD" d="M330.2,132.6c-2.1-0.4-3.9-1.2-5.4-2.2c-0.3-0.2-0.5-0.4-0.8-0.6c-3.7-3-5.6-8-6.2-13.9l0,0
			c0-0.1,0-0.3,0-0.4l0,0h-0.1l0,0c-18.1,10.9-32.1,0.9-33.1,0.2l0,0c-0.7,6.8-3.1,12.4-7.8,15.2l0,0c-0.2,0.1-0.5,0.3-0.7,0.4
			c-0.7,0.6-1.7,1-3,1.3C286.8,136.2,309.6,140,330.2,132.6z"/>
		<path fill="#A4A6A9" d="M284.6,115.6c0,0,14.4,11.2,33.1-0.2l0.5,4.4c0,0-4.3,5.9-18.2,5.9s-15.8-7.1-15.8-7.1L284.6,115.6z"/>
		<path fill="#B9BBBD" d="M317.6,115.4L317.6,115.4c2.2-2.2,4.3-4.6,5.7-7.1c3.7-6.5,6.5-18.9,6.5-18.9l4-2.4c0,0,7-16.5,4-20.3
			c-0.1-0.2-0.3-0.3-0.4-0.5c-0.1-0.1-0.2-0.2-0.3-0.4c-0.7-0.8-1.3-1-1.8-1c-0.1,0-0.2,0-0.4,0l0,0c-0.1,0-0.2,0.1-0.3,0.1l0,0
			c-0.1,0.1-0.2,0.1-0.2,0.2l0,0c-0.1,0.1-0.1,0.1-0.2,0.2l0,0c-0.1,0.1-0.1,0.1-0.1,0.2l-0.1,0.1c0,0,0,0,0,0.1c0,0,0,0,0,0.1
			s0,0.1,0,0.1l0,0l0.4-16.1c0,0-4.2-27.9-32.5-28.5c-0.2,0-0.4,0-0.5,0h-0.1c-0.2,0-0.4,0-0.5,0c-28.3,0.6-32.5,28.5-32.5,28.5
			l0.4,16.1l0,0c0,0-0.1-0.3-0.3-0.6l0,0c-0.1-0.1-0.1-0.1-0.2-0.2l0,0c-0.1-0.1-0.3-0.3-0.5-0.3l0,0c-0.1,0-0.2,0-0.4,0
			c-0.5,0-1.1,0.3-1.8,1c-0.1,0.1-0.2,0.2-0.3,0.4c-0.1,0.1-0.3,0.3-0.4,0.5c-2.9,3.8,4,20.3,4,20.3l4,2.4c0,0,2.8,12.4,6.5,18.9
			c1.3,2.4,3.2,4.8,5.3,6.9c0.1,0.1,0.4,0.4,0.4,0.4l0,0l0,0C285.5,116.3,299.5,126.3,317.6,115.4z"/>
	</g>
	<g id="Upper_Right_Leg">
		<path fill="#B9BBBD" d="M295.4,377.9c-16.5,3.3-38.9-3.5-54.9-9.9c-2,16.8-3.6,65.7-5.7,74.5c-2.3,9.7-4.5,18.9-4.5,24.9
			c0,1.6,0.1,3.5,0.2,5.6c2.3,9,10,20,34.7,6.8c4.5-15.7,11.6-37.8,13.8-48.8C282,416.7,293.9,389.3,295.4,377.9z"/>
		<path fill="#A4A6A9" d="M234.6,480.3c0,0,8,4.5,20.4,2c0,0-4.4,3.5-11.2,3C237,484.9,234.6,480.3,234.6,480.3z"/>
		<path fill="#A4A6A9" d="M285.8,408.6l9.4-30l-0.7-0.5c-2.6,0.5-5.4,0.7-8.3,0.7C289.2,390.9,287.4,402.1,285.8,408.6z"/>
	</g>
	<g id="Upper_Left_Leg">
		<path fill="#B9BBBD" d="M369.2,472.9c0.1-2,0.2-3.9,0.2-5.4c0-6-2.2-15.2-4.5-24.9c-2.1-9.1-3.8-61.2-5.9-76.2
			c-30.6,15-54.7,11.5-54.7,11.5c1.6,11.4,13.4,38.7,16.3,53.1c2.2,11,9.3,33.1,13.8,48.8C359.4,493.1,367,481.9,369.2,472.9z"/>
		<path fill="#A4A6A9" d="M313.5,378.3c-4.5,0.1-7.5-0.1-8.6-0.3l-0.4,0.3l9.4,30C312.3,401.8,310.5,390.5,313.5,378.3z"/>
		<path fill="#A4A6A9" d="M364.9,480.3c0,0-8,4.5-20.4,2c0,0,4.4,3.5,11.2,3C362.5,484.9,364.9,480.3,364.9,480.3z"/>
	</g>
	<g id="Lower_Right_Leg">
		<path fill="#B9BBBD" d="M230.5,473.1c0.3,5.9,0.6,13.2-0.7,17.6c-2.4,8-7.6,22.8-6.3,37.7c4.6,52.9,4.9,64.3,4.9,76.7
			c2.5,3.3,7.5,5.6,17.1,0.5c-0.2-2.9-0.4-6.3-0.4-10.4c0-11,11.9-56.3,12.7-66.8s1.7-22.8,4-34.7c0.6-3.2,1.9-8,3.5-13.7
			C240.5,493,232.9,482.1,230.5,473.1z"/>
	</g>
	<g id="Lower_Left_Leg">
		<path fill="#B9BBBD" d="M371.4,605c0-12.3,0.3-23.8,4.9-76.6c1.3-14.9-3.9-29.7-6.3-37.7c-1.3-4.3-0.9-11.8-0.7-17.7
			c-2.3,9-9.9,20.2-34.7,7c1.6,5.7,2.9,10.5,3.5,13.7c2.3,12,3.2,24.3,4,34.7c0.8,10.5,12.7,55.8,12.7,66.8c0,4.1-0.1,7.5-0.4,10.4
			C363.9,610.6,368.9,608.3,371.4,605z"/>
	</g>
	<g id="Right_Foot">
		<path fill="#B9BBBD" d="M228.4,605c0,0.9,0,1.8,0,2.6c0,12.1,4.6,9.3-5.6,29.7c-4.7,9.5-15.8,21.8-13.5,27.3
			c0.1,0.2,0.4,0.5,0.7,0.9c0.5-1.5,1.3-4.1,1.4-4.4c0.2-0.5,4.4-7.9,4.4-7.9s-0.2,4-2.2,6.6c-2.7,3.3-3,6.7-3,6.7l0,0
			c0,0.8-0.9,2.1,0.4,3.3c0.3,0.2,1.2,0.1,1.8,0.2c0.4-1.4,1.3-4.3,1.5-4.6c0.2-0.5,4.4-7.9,4.4-7.9s-0.2,4-2.2,6.6
			c-2.7,3.3-3,6.7-3,6.7l0,0c-0.1,0.6-0.2,1.5,0.3,2c1,1.2,1.2,0.9,2.2,0.8c0.2,0,0.3,0,0.4,0.1c0.5-1.5,1.2-4,1.4-4.3
			c0.2-0.5,4.4-7.9,4.4-7.9s-0.2,4-2.2,6.6c-2.1,2.6-2.7,5.2-2.9,6.3c0.4,0.6,0.7,1.5,1.7,1.8c1,0.4,1.5,0.5,2.9,0.2
			c0.3-0.1,0.5-0.1,0.7,0c0.5-1.5,1.2-3.9,1.4-4.2c0.2-0.5,4.4-7.9,4.4-7.9s-0.2,4-2.2,6.6c-2.1,2.7-2.8,5.4-2.9,6.4
			c0.3,0.5,0.8,1.1,2.6,1.3c3.7,0.3,7.6-1.3,9.3-8.8c5.6-24.6,9.9-26.9,13.9-36.2c5.3-12.2-1.5-7.3-3.3-28.1
			C235.9,610.6,230.9,608.3,228.4,605z"/>
		<path fill="#A4A6A9" d="M228.2,664.4c0,0-4.2,7.4-4.4,7.9c-0.2,0.3-0.9,2.7-1.4,4.2l0,0c0.1,0.1,0.2,0.1,0.2,0.1l0.1,0.2
			c0.1,0.2,0.2,0.4,0.3,0.6c0.2-1,0.8-3.7,2.9-6.4S228.2,664.4,228.2,664.4z"/>
		<path fill="#A4A6A9" d="M216.7,673.9c0.2,0.1,0.3,0.3,0.4,0.5c0.2-1,0.8-3.7,2.9-6.3s2.2-6.6,2.2-6.6s-4.2,7.4-4.4,7.9
			c-0.2,0.3-0.9,2.8-1.4,4.3l0,0"/>
		<path fill="#A4A6A9" d="M216.5,664.1c2.1-2.6,2.2-6.6,2.2-6.6s-4.2,7.4-4.4,7.9c-0.2,0.3-1.1,3.2-1.5,4.6c0.4,0,0.7,0.1,0.7,0.3
			c0,0.1,0,0.3,0,0.5l0,0C213.6,670.9,213.9,667.5,216.5,664.1z"/>
		<path fill="#A4A6A9" d="M210.1,665.6c0.3,0.3,0.6,0.7,0.5,1l0,0l0,0c0,0,0.3-3.4,3-6.7c2.1-2.6,2.2-6.6,2.2-6.6s-4.2,7.4-4.4,7.9
			C211.3,661.4,210.5,664,210.1,665.6C210,665.5,210,665.5,210.1,665.6"/>
	</g>
	<g id="Left_Foot">
		<path fill="#B9BBBD" d="M351,633.6c4,9.3,8.3,11.6,13.9,36.2c1.7,7.5,5.5,9.1,9.3,8.8c2.1-0.2,2.5-1,2.7-1.6
			c-0.1-0.8-0.7-3.4-2.8-5.9c-2-2.4-2.2-6-2.2-6s4,6.8,4.2,7.2c0.2,0.3,1,2.7,1.4,4.1c0.1,0,0.3,0,0.5,0c1.4,0.3,1.9,0.2,2.9-0.2
			c0.9-0.3,1.3-1.1,1.6-1.7c-0.1-0.7-0.7-3.4-2.8-5.9c-2-2.4-2.2-6-2.2-6s4,6.8,4.2,7.2c0.2,0.3,0.9,2.7,1.4,4c0,0,0.4-0.1,0.6-0.1
			c0.9-0.1,1.1,0.3,2.1-0.8c0.4-0.5,0.4-1.2,0.3-1.8l-0.1-0.7c0,0-0.5-2.4-3-5.4c-2-2.4-2.2-6-2.2-6s4,6.8,4.2,7.2
			c0.2,0.3,0.9,2.6,1.4,4h0.4c0,0,0.1,0,0.2,0c0.6,0,1.3,0,1.6-0.2c1-1,0.7-1.9,0.5-2.7l-0.2-0.6c0,0-0.6-2.5-3.1-5.5
			c-2-2.4-2.2-6-2.2-6s4,6.8,4.2,7.2c0.2,0.3,0.9,2.6,1.4,4l0.2-0.3c0,0,0,0,0.2-0.4c0.3-0.3,0.6-0.6,0.7-0.8
			c2.2-5.5-8.8-17.8-13.5-27.3c-10.2-20.4-5.6-17.6-5.6-29.7c0-0.9,0-1.8,0-2.7c-2.5,3.3-7.4,5.7-17.1,0.6
			C352.5,626.3,345.7,621.4,351,633.6z"/>
		<path fill="#A4A6A9" d="M371.9,665.1c0,0,0.2,3.6,2.2,6c2.1,2.5,2.7,5.1,2.8,5.9c0.1-0.3,0.3-0.6,0.7-0.6
			c-0.4-1.4-1.2-3.8-1.4-4.1C375.9,671.9,371.9,665.1,371.9,665.1z"/>
		<path fill="#A4A6A9" d="M377.6,662.6c0,0,0.2,3.6,2.2,6c2.2,2.6,2.7,5.2,2.8,5.9c0.2-0.3,0.4-0.6,0.6-0.8c-0.4-1.4-1.2-3.7-1.4-4
			C381.6,669.4,377.6,662.6,377.6,662.6z"/>
		<path fill="#A4A6A9" d="M381,658.9c0,0,0.2,3.6,2.2,6c2.6,3,3,5.4,3,5.4l0.1,0.7c0-0.4-0.1-0.6-0.1-0.7c0-0.1,0.2-0.2,0.4-0.3l0,0
			c-0.4-1.4-1.2-3.7-1.4-4C385,665.6,381,658.9,381,658.9z"/>
		<path fill="#A4A6A9" d="M383.7,654.9c0,0,0.2,3.6,2.2,6c2.6,3,3.1,5.4,3.1,5.4l0.2,0.8c-0.1-0.2-0.1-0.4-0.1-0.6
			c0-0.1,0-0.3,0.1-0.4h0.1c-0.4-1.4-1.2-3.7-1.4-4C387.8,661.7,383.7,654.9,383.7,654.9z"/>
	</g>
</g>
</svg>
