<?xml version="1.0" encoding="utf-8"?>
<!-- Generator: Adobe Illustrator 18.1.0, SVG Export Plug-In . SVG Version: 6.00 Build 0)  -->
<!DOCTYPE svg PUBLIC "-//W3C//DTD SVG 1.1//EN" "http://www.w3.org/Graphics/SVG/1.1/DTD/svg11.dtd">
<svg version="1.1" id="Layer_1" xmlns="http://www.w3.org/2000/svg" xmlns:xlink="http://www.w3.org/1999/xlink" x="0px" y="0px"
	 width="600px" height="700px" enable-background="new 0 0 600 700" xml:space="preserve">
<g id="Torso">
	<path fill="#B9BBBD" d="M349.9,308.2c-1-5.7-2.1-11-3-15.3l-1.2-12.2c-1.7-5.9-3.3-18.6-3.5-24.7c-0.1-2.1,0.1-29.2,0.2-31.5
		c0.1-0.2,5.3-21.1,5.7-23l0,0c0.9-1.9,1.8-4,2.6-6.2l0.1,0.2l0.1,0.1l-0.1-0.3c0,0-18.6-26.1-5.9-60.3c-0.6-0.1-1.2-0.2-1.8-0.2
		c-0.8-0.2-1.7-0.4-2.5-0.5l-9.6-0.4c-3.3,0.1-6.1-0.5-7.4-1.7c-4.4,2.1-28.8,12.8-48.5-0.9c-2.3,1.6-5.2,2.5-8.8,2.5l-8,0.3
		c0,0,0,0-0.1,0l-1.5,0.1c-0.2,0-0.3,0.1-0.5,0.1c-0.5,0.1-1.3,0.1-1.8,0.2c13,34.4-5.6,60.8-5.6,60.8c0.8,2.2,1.8,4.2,2.7,6.1
		c0.8,1.6,1.5,3.2,2.1,4.6c4.3,20.7,4.8,22.8,4.8,23c0.7,2.2,0.3,29.4,0.2,31.5c-0.2,6.1-3.3,18-5,23.9l-2.6,18.2
		c-0.4,2-0.8,4.1-1.1,6.3C266,311.3,305,315,349.9,308.2z"/>
	<path fill="#A4A6A9" d="M301.4,276.2c0,0,3.5-109.9,0-124.3c0,0-0.7,6.9-0.7,12C300.7,169,301.4,276.2,301.4,276.2z"/>
</g>
<g id="Head">
	<path fill="#B9BBBD" d="M265.9,88.1l3.9,2.4c0,0,2.8,12.3,6.5,18.8c1.4,2.5,3.5,4.9,5.6,7.1l0,0c0,0.1,0,0.3,0,0.4
		c2.9,1.3,9.1,3.5,16.8,3.5c6.7,0,13.6-2.6,16.2-3.7c0-0.1,0-0.1,0-0.2c0.1-0.1,0.2-0.2,0.3-0.3c2.1-2.1,4-4.4,5.4-6.8
		c3.6-6.5,6.5-18.8,6.5-18.8l3.9-2.4c0,0,6.9-16.4,4-20.2s-4-0.7-4-0.7l0.4-16.1c0,0-4.2-27.8-32.4-28.4c-0.2,0-0.4,0-0.5,0h-0.1
		c-0.2,0-0.4,0-0.5,0c-28.2,0.6-32.4,28.4-32.4,28.4l0.4,16.1c0,0-1.1-3.1-4,0.7C259,71.7,265.9,88.1,265.9,88.1z"/>
	<path fill="#B9BBBD" d="M274.9,131.3c19.7,13.7,44.1,3,48.5,0.9c-0.2-0.1-0.5-0.3-0.7-0.4l0,0c-4.7-2.9-7.1-8.4-7.8-15.2
		c-2.6,1.1-9.5,3.7-16.2,3.7c-7.7,0-13.9-2.1-16.8-3.5c-0.6,5.9-2.6,10.9-6.2,13.9C275.4,130.9,275.2,131.1,274.9,131.3z"/>
</g>
<g id="Left_Arm">
	<path fill="#B9BBBD" d="M254.4,134.5c-22.3,3.2-24.3,23.9-32.8,37.3L195.4,224c0,0-14.2,13.3-18.4,18.3c-0.4,0.5-42.6,45-42.6,45
		c-0.1,0.3-0.3,0.5-0.4,0.8c0,0,4.9,5.8,14.8,7.6l2.8-3.6c9.6-6.6,31.5-18.1,39.4-25c4.4-3.9,22.4-17.3,25.8-28.6l32-43.2
		C248.7,195.3,267.5,168.9,254.4,134.5z"/>
	<path fill="#A4A6A9" d="M199.8,231.4c0,0,3.7,4.3,11.1,3.7C210.9,235.1,206,240.6,199.8,231.4z"/>
</g>
<g id="Left_Hand">
	<path fill="#B9BBBD" d="M134.1,288c-0.5,0.3-1.1,0.5-1.7,0.6c-5.9,1.4-11.8,3.1-17.5,5.1l-17.6,6.1c-0.9,0.3-1.4,1.3-1.2,2.2
		l0.2,0.7c0.2,0.7,0.8,1.2,1.5,1.3c0.6,0,1.2,0.1,2,0.2c3.3,0.4,6.7,0.3,10-0.2c0,0,0,0,0.1,0l-1.8,2.4l-8.2,7.2
		c-3.3,2.9-6.5,6.1-9.5,9.3l-2.4,2.6c-0.9,1-0.7,2.6,0.5,3.4c0.9,0.6,2.1,0.4,3-0.2l17.9-12.4l0.2,0.7l-4.4,5
		c-5,5.1-9.6,10.5-13.9,16.2c-0.9,1.2-0.3,3.2,1.6,3.5c0.9,0.1,1.8-0.2,2.5-0.8l18.7-17.1c0.1,0.1,0.3,0.2,0.4,0.4l0.1,0.1l-2.2,2.9
		c-4.4,5.7-8.3,11.8-11.8,18.1c-0.5,0.8-0.3,1.9,0.5,2.5l0.6,0.5c0.9,0.7,2.1,0.6,2.8-0.2l17.3-20.5c0.3,0.2,0.2,0.1,0.5,0.4
		l-8.1,16.5c-0.6,1.3,0.2,2.9,1.7,3c0.8,0.1,1.6-0.4,2.1-1.1l12.2-19.8c0,0,5.4-5.7,7.3-7.5c7.9-8.1,9.9-20.8,11.3-23.2l0.1-0.1
		C139.1,293.8,134.1,288,134.1,288z"/>
</g>
<g id="Right_Arm">
	<path fill="#B9BBBD" d="M465.3,288L465.3,288c0-0.1,0-0.2,0-0.2l0.1-0.1c0,0-0.1-0.1-0.4-0.4c0,0,0,0,0-0.1c0,0-42.2-44.6-42.6-45
		C418.2,237.3,404,224,404,224l-26.3-52.2c-6.2-9.9-9-23.5-19-31.2l-0.1-0.1c-0.2-0.1-0.4-0.3-0.5-0.4c-3.4-2.5-7.7-4.3-13.2-5.1
		c-12.7,34.2,5.9,60.3,5.9,60.3l0.1,0.3l31.7,42.8c2.2,7.4,10.7,15.8,17.6,21.7c3.6,3.2,6.8,5.7,8.3,7c7.8,6.9,29.6,18.3,39.3,24.9
		l2.8,3.6l0,0v0.1C460.5,293.8,465.3,288,465.3,288z"/>
	<path fill="#A4A6A9" d="M395.7,231.4c0,0-3.7,4.3-11.1,3.7C384.6,235.1,389.5,240.6,395.7,231.4z"/>
</g>
<g id="Right_Hand">
	<path fill="#B9BBBD" d="M462,318.5c1.8,1.9,7.3,7.5,7.3,7.5l12.2,19.8c0.4,0.7,1.2,1.2,2.1,1.1c1.5-0.2,2.3-1.7,1.7-3l-8.1-16.5
		c0.3-0.2,0.2-0.1,0.5-0.4l17.3,20.5c0.7,0.9,2,1,2.8,0.2l0.6-0.5c0.7-0.6,0.9-1.7,0.5-2.5c-3.5-6.3-7.4-12.3-11.8-18.1l-2.2-2.9
		l0.1-0.1c0.2-0.1,0.3-0.2,0.4-0.4l18.7,17.1c0.7,0.6,1.6,0.9,2.5,0.8c2-0.3,2.6-2.3,1.6-3.5c-4.2-5.7-8.9-11.1-13.9-16.2l-4.5-4.6
		l0.2-0.7l17.9,12.4c0.9,0.6,2.1,0.7,3,0.2c1.3-0.7,1.4-2.4,0.5-3.4l-2.4-2.6c-3-3.3-6.2-6.4-9.5-9.3l-8.2-7.2l-1.8-2.4h0.1
		c3.3,0.5,6.7,0.5,10,0.2c0.7-0.1,1.4-0.2,2-0.2c0.7-0.1,1.3-0.6,1.5-1.3l0.2-0.7c0.3-0.9-0.2-1.9-1.2-2.2l-17.6-6.1
		c-5.8-2-11.6-3.7-17.5-5.1c-0.6-0.1-1.1-0.3-1.7-0.6v-0.1l-0.1,0.1c0,0-4.9,5.7-14.7,7.6l0.1,0.1C452,297.7,454.1,310.3,462,318.5z
		"/>
</g>
<g id="Shorts">
	<path fill="#B9BBBD" d="M297.4,358.1c0-4.6-0.3-23.7,1-35.9c0.1-1.2,0.2-2.2,0.3-3.1c0.1,0.8,0.2-3.9,0.3-2.8
		c1.2,12.2,3.2,37.2,3.2,41.8c0,8,9.8,10.8,19.8,11.5c11.7-1,26.2-3.5,36.6-5.4c0,0-0.1,0,0,0l0,0c-2.3-10.5-6.2-28.4-6.3-32.4
		c-0.1-7.6-1.1-15.9-2.4-23.6C305,315,266,311.3,249.7,309c-1.2,7.4-2.2,15.4-2.3,22.8c0,3.6-3.3,18.6-5.6,29.2
		c16.9,5.4,29.1,7.7,37.6,8.4C288.9,368.4,297.4,365.4,297.4,358.1z"/>
	<path fill="#A4A6A9" d="M296.2,368.7l3.3-1.5l3.9,1.5c2.6,1.7,9.8,1.7,18.6,0.9c-10.1-0.7-19.8-3.5-19.8-11.5
		c0-4.6-2-29.6-3.2-41.8c-0.1-1.1-0.2,3.6-0.3,2.8c-0.1,0.9-0.2,1.9-0.3,3.1c-1.3,12.2-1,31.3-1,35.9c0,7.3-8.5,10.3-18,11.3
		C291.6,370.6,296.2,368.7,296.2,368.7z"/>
</g>
<g id="Left_Upper_Leg">
	<path fill="#B9BBBD" d="M253.5,369.1c0,0,13.8,1.7,25.9,0.3c-8.5-0.8-20.7-3.1-37.6-8.4c-0.2,1.1-0.5,2.2-0.7,3.2
		c-2.3,10.4-4,68.6-6.3,78.3s-4.5,18.8-4.5,24.8c0,3.4,0.4,8.6,0.4,13.5c0.8,2.9,3.7,7.4,14.2,8.9c0.3,0,1.3,0.4,1.6,0.4
		c11.6,1.4,15.4-1.4,16.6-3.3c4-15.2,13.2-42.9,15.7-55.7c3-14.9,15.6-43.8,16.4-54.2c0.1-1.9,0.3-3.5,0.5-4.9
		c-1.1,0.8-2.4,1.4-3.8,1.4C285.7,373.4,268.9,372.8,253.5,369.1z"/>
	<path fill="#A4A6A9" d="M296.2,368.7c0,0-4.6,1.9-16.8,0.7l0,0c-12.1,1.4-25.9-0.3-25.9-0.3c15.4,3.7,32.2,4.3,38.4,4.3
		c1.4,0,2.7-0.6,3.8-1.4c2.3-1.7,3.8-4.3,3.8-4.3v-0.5L296.2,368.7z"/>
	<path fill="#A4A6A9" d="M252.8,490.2c0,0-4.8-5-12.8-3c0,0,3.1-3.4,7.3-2.5C251.6,485.5,252.8,490.2,252.8,490.2z"/>
</g>
<g id="Right_Upper_Leg">
	<path fill="#B9BBBD" d="M364.8,442.5c-2.3-9.7-4-67.7-6.3-78.3c-11.8,2.2-29.2,5.1-41.5,5.8c1.6-0.1,3.3-0.2,5.1-0.4
		c10.7,0.8,21.8-0.7,21.8-0.7c-13.1,3.2-25.9,4.8-34.5,4.7c-2.1,0-4-0.8-5.5-1.8c0.2,1.5,0.3,3.1,0.5,5
		c0.8,10.4,13.4,39.3,16.4,54.2c2.6,12.7,11.6,40.2,15.7,55.5c1.2,1.9,4.9,4.8,16.7,3.4c0.3,0,1.3-0.4,1.6-0.4
		c10.6-1.5,13.5-6,14.2-8.9c0-4.8,0.4-10,0.4-13.3C369.3,461.3,367.1,452.2,364.8,442.5z"/>
	<path fill="#A4A6A9" d="M346.7,490.2c0,0,4.8-5,12.8-3c0,0-3.1-3.4-7.3-2.5C347.9,485.5,346.7,490.2,346.7,490.2z"/>
	<path fill="#A4A6A9" d="M322,369.6c-1.8,0.2-3.5,0.3-5.1,0.4c-0.1,0-0.3,0-0.4,0c-0.4,0-0.8,0-1.2,0.1c-0.2,0-0.4,0-0.6,0
		c-0.3,0-0.6,0-0.9,0s-0.5,0-0.8,0c-0.2,0-0.4,0-0.6,0c-0.3,0-0.6,0-0.8,0c-0.1,0-0.3,0-0.4,0c-1.5,0-2.9-0.1-4.1-0.3
		c-0.1,0-0.1,0-0.2,0c-0.3,0-0.5-0.1-0.8-0.1c-0.1,0-0.1,0-0.2,0c-0.2,0-0.4-0.1-0.7-0.1c-0.1,0-0.2,0-0.2-0.1
		c-0.2-0.1-0.4-0.1-0.6-0.2c-0.1,0-0.2-0.1-0.2-0.1c-0.1-0.1-0.3-0.1-0.4-0.2c-0.2-0.1-0.4-0.2-0.6-0.3l-3.9-1.5v0.5
		c0,0,1.6,2.4,4.3,4.1c1.5,1,3.4,1.8,5.5,1.8c8.6,0.1,21.4-1.5,34.5-4.7C343.8,368.9,332.8,370.4,322,369.6z"/>
</g>
<g id="Lower_Left_Leg">
	<path fill="#B9BBBD" d="M243,607.1L243,607.1c2.9-20.2,14-70.1,14.7-79.2c0.8-10.4,1.7-22.7,4-34.6c0.3-1.7,0.9-4,1.6-6.6
		c-1.2,1.9-5,4.7-16.6,3.3c-0.3,0-1.3-0.4-1.6-0.4c-10.6-1.5-13.5-6-14.2-8.9c0,3.6-0.2,7.1-0.9,9.6c-2.4,8-7.6,22.7-6.3,37.6
		c4.7,54.4,4,64.8,4,77.6C227.6,605.5,233.3,610.4,243,607.1z"/>
</g>
<g id="Lower_Right_Leg">
	<path fill="#B9BBBD" d="M372.1,605.5L372.1,605.5c0-12.8-0.7-23.2,4-77.6c1.3-14.9-3.9-29.6-6.3-37.6c-0.7-2.5-0.9-6-0.9-9.7
		c-0.8,2.9-3.7,7.4-14.2,8.9c-0.3,0-1.3,0.4-1.6,0.4c-11.8,1.4-15.5-1.5-16.6-3.4c0.7,2.7,1.3,5,1.6,6.8c2.3,11.9,3.2,24.2,4,34.6
		c0.7,9,11.7,59,14.6,79.3v-0.1C366.3,610.4,372.1,605.5,372.1,605.5z"/>
</g>
<g id="Left_Foot">
	<path fill="#B9BBBD" d="M222.9,622.4c-1.2,2.7-10.4,35.7-12.5,38.6c-3.1,4.5,9.4,15.6,13.1,15c4.9,2.4,7,1.2,8.1,0.9
		s8.1-8,7.6-11.2c-0.6-3.3,1.3-19.6,1.3-19.6s-0.3-5.8,0.7-11.8c0.6-3.7,3.1-5.3,3.6-8.3c0.5-2.7-1.1-8.2-2.4-12.4
		c0-1.5,0.3-3.7,0.7-6.5V607c-9.7,3.3-15.4-1.6-15.4-1.6c-0.8,2.3-1.5,4.9-1.5,6C226.2,613.4,224.1,619.7,222.9,622.4z"/>
	<path fill="#A4A6A9" d="M237.5,670.4c0,0-20.3-0.2-25.9-11.6c0,0-1,1.2-1,2.2c-0.1,2.4,1.8,4.6,4.9,8.2c2,2.3,5.1,4.3,8.9,5.2
		c1.9,0.4,2.3,1.1,3.3,1.2c5.5,0.4,7.2-1.9,8.6-3.6L237.5,670.4z"/>
	<path fill="#A4A6A9" d="M223.6,676c0,0-0.1-1,0.3-1.8c0.3-0.7,0.1-1.8,0.1-1.8s-0.5,2-0.6,2.1c0,0.1-0.1,1.4-0.1,1.4L223.6,676z"/>
	<path fill="#A4A6A9" d="M219.4,674.4c0,0-0.2-0.6,0.1-1.7c0.3-0.9-0.1-2.2-0.1-2.2s-0.3,2.5-0.3,2.6c0,0.2,0.1,1.1,0.1,1.1
		L219.4,674.4z"/>
	<path fill="#A4A6A9" d="M215.5,671.4c0,0-0.1-0.5,0.2-1.6c0.2-0.9-0.1-2.2-0.1-2.2s-0.3,2.5-0.3,2.6c0,0.2,0.1,0.9,0.1,0.9
		L215.5,671.4z"/>
	<path fill="#A4A6A9" d="M212.2,667.7c0,0-0.1-0.1,0.1-1.3c0.2-0.9-0.1-2.2-0.1-2.2s-0.3,2.5-0.3,2.6c0,0.2,0,0.4,0,0.4L212.2,667.7
		z"/>
	<path fill="#A4A6A9" d="M219.1,635.4c0,0,1.9-8.2,5.5-9.9c1.8-0.5,5.2-1.4,7.9-1.4c8.3,0,11.5,1.5,9.6,8.3
		c-0.4,1.5-3.5,3.4-7.2,4.1l0.1,0.1c0,0-20.5,13.7-4.8,19c3.4,1.1,10.9,3.1,8.6,12.7c0,0-19.2,1.4-26.1-12.6
		C212.7,655.6,216.1,644.4,219.1,635.4z"/>
</g>
<g id="Right_Foot">
	<path fill="#B9BBBD" d="M355,626.1c0.5,3,3,4.6,3.6,8.3c1,6,0.7,11.8,0.7,11.8s1.8,16.3,1.3,19.6c-0.6,3.3,6.4,10.9,7.6,11.2
		s3.2,1.5,8.1-0.9c3.7,0.6,16.2-10.5,13.1-15c-2-2.9-11.3-35.9-12.5-38.6c-1.2-2.7-3.3-8.9-3.3-11c0-1-0.7-3.4-1.4-5.5
		c0-0.2,0-0.3,0-0.5l0,0c0,0-5.8,4.9-15.4,1.6v0.1c0.4,2.6,0.6,4.7,0.7,6.1C356.2,617.5,354.5,623.3,355,626.1z"/>
	<path fill="#A4A6A9" d="M380.8,635.6c0,0-1.9-8.2-5.5-9.9c-1.8-0.5-5.2-1.4-7.9-1.4c-8.3,0-11.5,1.5-9.6,8.3
		c0.4,1.5,3.5,3.4,7.2,4.1l-0.1,0.1c0,0,20.5,13.7,4.8,19c-3.4,1.1-10.9,3.1-8.6,12.7c0,0,19.2,1.4,26.1-12.6
		C387.3,655.8,383.9,644.6,380.8,635.6z"/>
	<path fill="#A4A6A9" d="M362.4,670.6c0,0,20.3-0.2,25.9-11.6c0,0,1,1.2,1,2.2c0.1,2.4-1.8,4.6-4.9,8.2c-2,2.3-5.1,4.3-8.9,5.2
		c-1.9,0.4-2.3,1.1-3.3,1.2c-5.5,0.4-7.2-1.9-8.6-3.6L362.4,670.6z"/>
	<path fill="#A4A6A9" d="M376.4,676.2c0,0,0.1-1-0.3-1.8c-0.3-0.7-0.1-1.8-0.1-1.8s0.5,2,0.6,2.1s0.1,1.4,0.1,1.4L376.4,676.2z"/>
	<path fill="#A4A6A9" d="M380.5,674.6c0,0,0.2-0.6-0.1-1.7c-0.3-0.9,0.1-2.2,0.1-2.2s0.3,2.5,0.3,2.6c0,0.2-0.1,1.1-0.1,1.1
		L380.5,674.6z"/>
	<path fill="#A4A6A9" d="M384.4,671.6c0,0,0.1-0.5-0.2-1.6c-0.2-0.9,0.1-2.2,0.1-2.2s0.3,2.5,0.3,2.6c0,0.2-0.1,0.9-0.1,0.9
		L384.4,671.6z"/>
	<path fill="#A4A6A9" d="M387.7,667.9c0,0,0.1-0.1-0.1-1.3c-0.2-0.9,0.1-2.2,0.1-2.2s0.3,2.5,0.3,2.6c0,0.2,0,0.4,0,0.4L387.7,667.9
		z"/>
</g>
</svg>
