<?xml version="1.0" encoding="utf-8"?>
<!-- Generator: Adobe Illustrator 18.1.1, SVG Export Plug-In . SVG Version: 6.00 Build 0)  -->
<svg version="1.1" id="Layer_1" xmlns="http://www.w3.org/2000/svg" xmlns:xlink="http://www.w3.org/1999/xlink" x="0px" y="0px"
	 viewBox="0 0 387 193.5" enable-background="new 0 0 387 193.5" xml:space="preserve">
<path fill="none" stroke="#000000" stroke-miterlimit="10" d="M41.8,163H8c-3.3,0-6-2.7-6-6V80.1c0-3.3,2.7-6,6-6h33.8
	c3.3,0,6,2.7,6,6V157C47.8,160.3,45.1,163,41.8,163z"/>
<circle fill="none" stroke="#000000" stroke-miterlimit="10" cx="24.9" cy="155.8" r="4.2"/>
<path fill="none" stroke="#D1D3D4" stroke-miterlimit="10" d="M152.5,163.2H61.7c-3.3,0-6-2.7-6-6V29.3c0-3.3,2.7-6,6-6h90.8
	c3.3,0,6,2.7,6,6v127.9C158.5,160.6,155.8,163.2,152.5,163.2z"/>
<circle fill="none" stroke="#D1D3D4" stroke-miterlimit="10" cx="107.1" cy="156" r="4.2"/>
<rect x="4.9" y="86.5" fill="none" stroke="#000000" stroke-miterlimit="10" width="39.9" height="61.5"/>
<rect x="59.1" y="37.2" fill="none" stroke="#D1D3D4" stroke-miterlimit="10" width="96" height="112.2"/>
<g>
	<line fill="none" stroke="#000000" stroke-miterlimit="10" x1="208.5" y1="77.8" x2="208.5" y2="159.3"/>
	<line fill="none" stroke="#000000" stroke-miterlimit="10" x1="259" y1="77.8" x2="259" y2="159.3"/>
	<path fill="none" stroke="#000000" stroke-miterlimit="10" d="M259,77.8c0-2.1-11.3-3.8-25.2-3.8s-25.2,1.7-25.2,3.8"/>
	<path fill="none" stroke="#000000" stroke-miterlimit="10" d="M259,159.3c0,2.1-11.3,3.8-25.2,3.8s-25.2-1.7-25.2-3.8"/>
</g>
<rect x="211.2" y="82.5" fill="none" stroke="#000000" stroke-miterlimit="10" width="45.2" height="71.5"/>
<path fill="none" stroke="#D1D3D4" stroke-miterlimit="10" d="M266.7,17.5c0-8.4,3.7-15.2,21.9-15.2"/>
<line fill="none" stroke="#D1D3D4" stroke-miterlimit="10" x1="266.7" y1="17.5" x2="266.7" y2="150.3"/>
<path fill="none" stroke="#D1D3D4" stroke-miterlimit="10" d="M266.7,148c0,8.4,3.7,15.2,21.9,15.2"/>
<line fill="none" stroke="#D1D3D4" stroke-miterlimit="10" x1="288.6" y1="163.2" x2="362.4" y2="163.2"/>
<path fill="none" stroke="#D1D3D4" stroke-miterlimit="10" d="M384.3,148c0,8.4-3.7,15.2-21.9,15.2"/>
<line fill="none" stroke="#D1D3D4" stroke-miterlimit="10" x1="384.3" y1="17.5" x2="384.3" y2="150.3"/>
<path fill="none" stroke="#D1D3D4" stroke-miterlimit="10" d="M384.3,17.5c0-8.4-3.7-15.2-21.9-15.2"/>
<line fill="none" stroke="#D1D3D4" stroke-miterlimit="10" x1="288.6" y1="2.3" x2="362.4" y2="2.3"/>
<rect x="277.6" y="19.1" fill="none" stroke="#D1D3D4" stroke-miterlimit="10" width="95.7" height="129.6"/>
<g>
	<line fill="none" stroke="#D1D3D4" stroke-miterlimit="10" x1="317.8" y1="76.2" x2="333.2" y2="91.6"/>
	<line fill="none" stroke="#D1D3D4" stroke-miterlimit="10" x1="317.8" y1="91.7" x2="333.2" y2="76.2"/>
	<circle fill="none" stroke="#D1D3D4" stroke-miterlimit="10" cx="325.5" cy="83.9" r="15.1"/>
</g>
<g>
	<line fill="none" stroke="#D1D3D4" stroke-miterlimit="10" x1="99.4" y1="83.9" x2="114.8" y2="99.4"/>
	<line fill="none" stroke="#D1D3D4" stroke-miterlimit="10" x1="99.4" y1="99.4" x2="114.8" y2="84"/>
	<circle fill="none" stroke="#D1D3D4" stroke-miterlimit="10" cx="107.1" cy="91.7" r="15.1"/>
</g>
<g>
	<line fill="none" stroke="#000000" stroke-miterlimit="10" x1="226" y1="117.7" x2="231.3" y2="123"/>
	<line fill="none" stroke="#000000" stroke-miterlimit="10" x1="231.3" y1="122.2" x2="241.5" y2="112"/>
	<circle fill="none" stroke="#000000" stroke-miterlimit="10" cx="233.8" cy="117.3" r="15.1"/>
</g>
<g>
	<line fill="none" stroke="#000000" stroke-miterlimit="10" x1="17.1" y1="117.5" x2="22.4" y2="122.8"/>
	<line fill="none" stroke="#000000" stroke-miterlimit="10" x1="22.4" y1="122.1" x2="32.7" y2="111.8"/>
	<circle fill="none" stroke="#000000" stroke-miterlimit="10" cx="24.9" cy="117.1" r="15.1"/>
</g>
<rect x="22.4" y="180.2" fill="none" width="86.6" height="15.5"/>
<text transform="matrix(1 0 0 1 50.5548 193.1016)" fill="#25AFE5" font-family="'HelveticaNeue-Bold'" font-size="18">iOS</text>
<rect x="242.4" y="180.2" fill="none" width="86.6" height="15.5"/>
<text transform="matrix(1 0 0 1 251.8981 193.1016)" fill="#25AFE5" font-family="'HelveticaNeue-Bold'" font-size="18">Android</text>
</svg>
